<svg id="Layer_1" xmlns="http://www.w3.org/2000/svg" viewBox="0 0 418 130">
  <defs>
    <style>
      .cls-1,.cls-5,.cls-6,.cls-7{fill:none;}.cls-2{clip-path:url(#clip-path);}.cls-3{fill:#fff;}.cls-4{fill:#3cb0e0;}.cls-5,.cls-6,.cls-7{stroke:#fff;}.cls-5{stroke-width:1.57px;}.cls-6{stroke-miterlimit:11.91;stroke-width:2px;}.cls-7{stroke-width:1.88px;}.cls-8{clip-path:url(#clip-path-23);}
    </style>
    <clipPath id="clip-path">
      <rect class="cls-1" x="0.15" y="0.5" width="417.6" height="129.8"/>
    </clipPath>
    <clipPath id="clip-path-23">
      <rect class="cls-1" x="213.49" y="-243.4" width="129.8" height="417.61"
            transform="translate(29.74 95.3) rotate(-20.5)"/>
    </clipPath>
  </defs>
  <title>Artboard 1</title>
  <g class="cls-2">
    <path class="cls-3" d="M295.55,72.9c3.1,8.2,8.9,13.6,13.1,12s5.1-9.5,2-17.6-8.9-13.6-13.1-12-5,9.4-2,17.6"/>
  </g>
  <g class="cls-2">
    <path class="cls-4" d="M343.35,40.1a6.84,6.84,0,0,0,4,8.8,6.76,6.76,0,0,0,8.8-3.9l13.4-34.9-12.8-4.9-13.4,34.9"/>
  </g>
  <g class="cls-2">
    <path class="cls-5" d="M343.35,40.1a6.84,6.84,0,0,0,4,8.8,6.76,6.76,0,0,0,8.8-3.9l13.4-34.9-12.8-4.9-13.4,34.9"/>
  </g>
  <g class="cls-2">
    <path class="cls-4" d="M344.85,36.3a6.84,6.84,0,0,0,4,8.8,6.76,6.76,0,0,0,8.8-3.9l13.4-34.9-12.8-4.9-13.4,34.9"/>
  </g>
  <g class="cls-2">
    <path class="cls-5" d="M344.85,36.3a6.84,6.84,0,0,0,4,8.8,6.76,6.76,0,0,0,8.8-3.9l13.4-34.9-12.8-4.9-13.4,34.9"/>
  </g>
  <g class="cls-2">
    <path class="cls-4" d="M356,37.4a3.86,3.86,0,1,0-5,2.2,3.84,3.84,0,0,0,5-2.2"/>
  </g>
  <g class="cls-2">
    <circle class="cls-5" cx="352.35" cy="36" r="3.9"/>
  </g>
  <g class="cls-2">
    <path class="cls-4"
          d="M377.35,89.2V67l.2-.3c2.8-3.3,5.4-4.6,8.9-4.6,6.3,0,9.3,4.8,9.3,14.8,0,14.1-6.1,16.2-9.8,16.2a11.89,11.89,0,0,1-8.3-3.1l-.3-.3v-.5Zm1.5,16a18.94,18.94,0,0,0,12.1,4.5c16.7,0,25.8-17.1,25.8-33.1,0-19-9.5-31.2-24.1-31.2a25.28,25.28,0,0,0-16,6.4c-.4-1.4-.7-2.8-1.1-4.2l-.2-.7h-18.5v82.5h22.5V112c-.2-2.4-.4-4.6-.5-6.8"/>
  </g>
  <g class="cls-2">
    <path class="cls-6"
          d="M377.35,89.2V67l.2-.3c2.8-3.3,5.4-4.6,8.9-4.6,6.3,0,9.3,4.8,9.3,14.8,0,14.1-6.1,16.2-9.8,16.2a11.89,11.89,0,0,1-8.3-3.1l-.3-.3v-.5Zm1.5,16a18.94,18.94,0,0,0,12.1,4.5c16.7,0,25.8-17.1,25.8-33.1,0-19-9.5-31.2-24.1-31.2a25.28,25.28,0,0,0-16,6.4c-.4-1.4-.7-2.8-1.1-4.2l-.2-.7h-18.5v82.5h22.5V112C379.15,109.6,379,107.4,378.85,105.2Z"/>
  </g>
  <g class="cls-2">
    <path class="cls-4"
          d="M250.45,84.6c0,16.3,8.1,25.3,22.9,25.3a45.06,45.06,0,0,0,14.3-2.2l.9-.3-.2-.9-3.1-14.8-.2-1.1-1.1.4a16.48,16.48,0,0,1-4.9.9c-4.1,0-6.1-2.6-6.1-7.7V64.8h13.6v-18h-13.6V31.3h-18.8l-.1.8c-.8,4.9-1.5,9.8-2.3,14.7-2.8.2-5.5.4-8.3.7l-.9.1V64.7h7.9V84.6Z"/>
  </g>
  <g class="cls-2">
    <path class="cls-6"
          d="M250.45,84.6c0,16.3,8.1,25.3,22.9,25.3a45.06,45.06,0,0,0,14.3-2.2l.9-.3-.2-.9-3.1-14.8-.2-1.1-1.1.4a16.48,16.48,0,0,1-4.9.9c-4.1,0-6.1-2.6-6.1-7.7V64.8h13.6v-18h-13.6V31.3h-18.8l-.1.8c-.8,4.9-1.5,9.8-2.3,14.7-2.8.2-5.5.4-8.3.7l-.9.1V64.7h7.9V84.6Z"/>
  </g>
  <g class="cls-2">
    <path class="cls-4"
          d="M204,107.8h21.5V73.9c3.4-8.5,9.6-9.2,11.4-9.2a28.06,28.06,0,0,1,6,.8l.5.1,1,.2.2-1,3.3-17.6.1-.8-.7-.3a18.92,18.92,0,0,0-7.8-1.3c-6.4,0-12.5,3.8-16.7,10.3l-1.1-8.1-.1-.9h-18.6v61.5h1Z"/>
  </g>
  <g class="cls-2">
    <path class="cls-6"
          d="M204,107.8h21.5V73.9c3.4-8.5,9.6-9.2,11.4-9.2a28.06,28.06,0,0,1,6,.8l.5.1,1,.2.2-1,3.3-17.6.1-.8-.7-.3a18.92,18.92,0,0,0-7.8-1.3c-6.4,0-12.5,3.8-16.7,10.3l-1.1-8.1-.1-.9h-18.6v61.5h1Z"/>
  </g>
  <g class="cls-2">
    <path class="cls-4"
          d="M167.35,88.2c0-4.5,4.6-7.5,13.7-8.8l1.1-.2v9.7l-.3.3c-2.1,2.3-4.3,4.4-8.1,4.4-4-.1-6.4-2.1-6.4-5.4m-19.5,1.6c0,9.6,6.5,19.3,18.9,19.3,5.7,0,10.9-2.1,16.2-6.7.4,1.5.7,3,1.1,4.5l.2.8h18.5V73.6c0-19.1-8.7-28.9-25.8-28.9-9,0-17.7,2.6-26.7,8l-.8.5.4.8L157,67.3l.5.9.9-.5c6.4-3.5,10.6-4.9,14.5-4.9,4.3,0,6.5,1.3,7.2,4.3-22.3,2.7-32.2,9.7-32.2,22.7"/>
  </g>
  <g class="cls-2">
    <path class="cls-6"
          d="M167.35,88.2c0-4.5,4.6-7.5,13.7-8.8l1.1-.2v9.7l-.3.3c-2.1,2.3-4.3,4.4-8.1,4.4C169.75,93.5,167.35,91.5,167.35,88.2Zm-19.5,1.6c0,9.6,6.5,19.3,18.9,19.3,5.7,0,10.9-2.1,16.2-6.7.4,1.5.7,3,1.1,4.5l.2.8h18.5V73.6c0-19.1-8.7-28.9-25.8-28.9-9,0-17.7,2.6-26.7,8l-.8.5.4.8L157,67.3l.5.9.9-.5c6.4-3.5,10.6-4.9,14.5-4.9,4.3,0,6.5,1.3,7.2,4.3C157.75,69.8,147.85,76.8,147.85,89.8Z"/>
  </g>
  <g class="cls-2">
    <path class="cls-4"
          d="M59.65,107.8h21.5V68.2c2.7-2.6,5.2-3.9,7.3-3.9,2.8,0,5,.6,5,8.5v35H116V68.2c2.7-2.6,5.2-3.9,7.3-3.9,2.8,0,5,.6,5,8.5v35h22.5V70.1c0-16.3-7-25.3-19.8-25.3-8.1,0-13.6,4.4-18.1,8.9-3.5-6-9-8.9-16.7-8.9-8.1,0-13.2,3.9-17.6,8.1-.4-1.9-.8-3.9-1.1-5.8l-.2-.8H58.75v61.5h.9Z"/>
  </g>
  <g class="cls-2">
    <path class="cls-6"
          d="M59.65,107.8h21.5V68.2c2.7-2.6,5.2-3.9,7.3-3.9,2.8,0,5,.6,5,8.5v35H116V68.2c2.7-2.6,5.2-3.9,7.3-3.9,2.8,0,5,.6,5,8.5v35h22.5V70.1c0-16.3-7-25.3-19.8-25.3-8.1,0-13.6,4.4-18.1,8.9-3.5-6-9-8.9-16.7-8.9-8.1,0-13.2,3.9-17.6,8.1-.4-1.9-.8-3.9-1.1-5.8l-.2-.8H58.75v61.5h.9Z"/>
  </g>
  <g class="cls-2">
    <path class="cls-4"
          d="M2.25,98.5a45.92,45.92,0,0,0,30,11.3c15.5,0,31.2-8.9,31.2-25.8,0-10.7-5.2-17.9-15.8-22.1l-9.4-3.7-1.9-.7c-6-2.3-8.9-3.5-8.9-6.1,0-3.7,4.4-4.2,7.1-4.2,5.1,0,9.4,1.6,14.9,5.4l.8.5.6-.7,10.2-12.9.6-.7-.6-.6a38.33,38.33,0,0,0-26.4-10.6c-17,0-29.8,10.8-29.8,25,0,10.2,5.9,18.4,16.2,22.5l9.6,4,1.7.7c5.7,2.2,8.2,3.3,8.2,5.9,0,1.1,0,4.5-7.8,4.5-5.2,0-11.9-2.8-17.5-7.3l-.8-.6-.6.8-11.7,14-.6.7Z"/>
  </g>
  <g class="cls-2">
    <path class="cls-6"
          d="M2.25,98.5a45.92,45.92,0,0,0,30,11.3c15.5,0,31.2-8.9,31.2-25.8,0-10.7-5.2-17.9-15.8-22.1l-9.4-3.7-1.9-.7c-6-2.3-8.9-3.5-8.9-6.1,0-3.7,4.4-4.2,7.1-4.2,5.1,0,9.4,1.6,14.9,5.4l.8.5.6-.7,10.2-12.9.6-.7-.6-.6a38.33,38.33,0,0,0-26.4-10.6c-17,0-29.8,10.8-29.8,25,0,10.2,5.9,18.4,16.2,22.5l9.6,4,1.7.7c5.7,2.2,8.2,3.3,8.2,5.9,0,1.1,0,4.5-7.8,4.5-5.2,0-11.9-2.8-17.5-7.3l-.8-.6-.6.8-11.7,14-.6.7Z"/>
  </g>
  <g class="cls-2">
    <path class="cls-4"
          d="M342.45,112.5c15.2-5.7,19.1-32.7,8.8-60.3s-31-45.4-46.2-39.8c-.5.2-8.3,3.1-8.8,3.3-13.9,6.8-10,30.3,0,57,10.1,27,21.5,45.9,37,43.1.6-.1,8.8-3.2,9.2-3.3"/>
  </g>
  <g class="cls-2">
    <path class="cls-7"
          d="M342.45,112.5c15.2-5.7,19.1-32.7,8.8-60.3s-31-45.4-46.2-39.8c-.5.2-8.3,3.1-8.8,3.3-13.9,6.8-10,30.3,0,57,10.1,27,21.5,45.9,37,43.1C333.85,115.7,342.05,112.6,342.45,112.5Z"/>
  </g>
  <g class="cls-2">
    <path class="cls-4"
          d="M334.45,115.5c14.1-5.3,17.2-32,6.9-59.6s-30.2-45.7-44.3-40.5-17.2,32-6.9,59.6,30.2,45.8,44.3,40.5"/>
  </g>
  <g class="cls-8">
    <ellipse class="cls-7" cx="315.79" cy="65.44" rx="27.3" ry="53.4"
             transform="translate(-2.92 114.73) rotate(-20.5)"/>
  </g>
  <g class="cls-2">
    <path class="cls-3" d="M312.05,55.7c4.2-1.6,5.1-9.5,2-17.6s-8.9-13.6-13.1-12-5.1,9.5-2,17.6,9,13.5,13.1,12"/>
  </g>
  <g class="cls-2">
    <path class="cls-3" d="M320.75,63.5c3.1,8.2,8.9,13.6,13.1,12s5.1-9.5,2-17.6-8.9-13.6-13.1-12-5,9.4-2,17.6"/>
  </g>
  <g class="cls-2">
    <path class="cls-3" d="M330.45,104.8c4.2-1.6,5.1-9.5,2-17.6s-8.9-13.6-13.1-12-5.1,9.5-2,17.7,9,13.5,13.1,11.9"/>
  </g>
  <g class="cls-2">
    <path class="cls-3" d="M295.55,72.9c3.1,8.2,8.9,13.6,13.1,12s5.1-9.5,2-17.6-8.9-13.6-13.1-12-5,9.4-2,17.6"/>
  </g>
</svg>
